<svg width="37" height="37" viewBox="0 0 37 37" fill="none" xmlns="http://www.w3.org/2000/svg">
<path d="M4.625 27.75V18.5C4.625 14.8201 6.08683 11.291 8.68889 8.68889C11.291 6.08683 14.8201 4.625 18.5 4.625C22.1799 4.625 25.709 6.08683 28.3111 8.68889C30.9132 11.291 32.375 14.8201 32.375 18.5V27.75" stroke="#1787FC" stroke-width="3" stroke-linecap="round" stroke-linejoin="round"/>
<path d="M32.375 29.2918C32.375 30.1096 32.0501 30.8938 31.4719 31.4721C30.8937 32.0503 30.1094 32.3752 29.2917 32.3752H27.75C26.9322 32.3752 26.148 32.0503 25.5698 31.4721C24.9915 30.8938 24.6667 30.1096 24.6667 29.2918V24.6668C24.6667 23.8491 24.9915 23.0648 25.5698 22.4866C26.148 21.9083 26.9322 21.5835 27.75 21.5835H32.375V29.2918ZM4.625 29.2918C4.625 30.1096 4.94985 30.8938 5.52809 31.4721C6.10632 32.0503 6.89058 32.3752 7.70833 32.3752H9.25C10.0678 32.3752 10.852 32.0503 11.4302 31.4721C12.0085 30.8938 12.3333 30.1096 12.3333 29.2918V24.6668C12.3333 23.8491 12.0085 23.0648 11.4302 22.4866C10.852 21.9083 10.0678 21.5835 9.25 21.5835H4.625V29.2918Z" stroke="#1787FC" stroke-width="3" stroke-linecap="round" stroke-linejoin="round"/>
</svg>
