<svg width="15" height="15" viewBox="0 0 15 15" fill="none" xmlns="http://www.w3.org/2000/svg">
<g id="lock 1">
<path id="Vector" d="M11.875 6.875H3.125C2.43464 6.875 1.875 7.43464 1.875 8.125V12.5C1.875 13.1904 2.43464 13.75 3.125 13.75H11.875C12.5654 13.75 13.125 13.1904 13.125 12.5V8.125C13.125 7.43464 12.5654 6.875 11.875 6.875Z" stroke="#1D263A" stroke-linecap="round" stroke-linejoin="round"/>
<path id="Vector_2" d="M4.37502 6.87497V4.37497C4.37502 3.54617 4.70426 2.75131 5.29031 2.16526C5.87636 1.57921 6.67121 1.24997 7.50001 1.24997C8.32882 1.24997 9.12367 1.57921 9.70972 2.16526C10.2958 2.75131 10.625 3.54617 10.625 4.37497V6.87497" stroke="#1D263A" stroke-linecap="round" stroke-linejoin="round"/>
</g>
</svg>
