<svg width="79" height="19" viewBox="0 0 79 19" fill="none" xmlns="http://www.w3.org/2000/svg">
<path d="M8.904 18L12.024 7.848L15.144 18H18.288L23.904 1.2H20.016L16.776 11.88L13.584 1.2H10.464L7.296 11.88L4.032 1.2H0.144L5.784 18H8.904ZM24.8549 18H28.4549V10.944C28.4549 9.576 29.4869 8.544 30.8309 8.544C32.1749 8.544 33.2069 9.576 33.2069 10.944V18H36.7829V9.984C36.7829 8.616 36.3269 7.488 35.3909 6.576C34.4549 5.664 33.3269 5.208 31.9589 5.208C30.4949 5.208 29.3429 5.736 28.4549 6.792V-1.43051e-06H24.8549V18ZM42.2002 18V5.52H38.6002V18H42.2002ZM38.7922 4.008C39.2242 4.416 39.7522 4.632 40.4002 4.632C41.0482 4.632 41.5762 4.416 41.9842 4.008C42.4162 3.6 42.6322 3.072 42.6322 2.424C42.6322 1.776 42.4162 1.248 41.9842 0.839999C41.5762 0.431999 41.0482 0.215999 40.4002 0.215999C39.7522 0.215999 39.2242 0.431999 38.7922 0.839999C38.3842 1.248 38.1682 1.776 38.1682 2.424C38.1682 3.072 38.3842 3.6 38.7922 4.008ZM43.2092 8.64H44.9132V14.016C44.9132 15.144 45.3212 16.104 46.1612 16.872C47.0012 17.616 48.0572 18 49.2812 18H51.3452V14.64H49.8812C49.0892 14.64 48.5132 14.088 48.5132 13.32V8.64H51.3452V5.52H48.5132V3.096H44.9132V5.52H43.2092V8.64ZM65.3571 13.056C65.4531 12.648 65.5011 12.216 65.5011 11.76C65.5011 9.912 64.8771 8.352 63.6051 7.104C62.3331 5.832 60.7731 5.208 58.9011 5.208C57.0051 5.208 55.4451 5.832 54.1731 7.104C52.9011 8.352 52.2771 9.912 52.2771 11.76C52.2771 13.632 52.9251 15.192 54.2211 16.44C55.5171 17.688 57.1491 18.312 59.0931 18.312C61.7571 18.312 63.9411 17.016 65.0691 14.928L61.5891 14.136C60.9651 14.88 60.1491 15.24 59.1171 15.24C57.6531 15.24 56.4771 14.376 56.0691 13.056H65.3571ZM56.0931 10.392C56.5011 9.12 57.6291 8.28 58.9011 8.28C60.2451 8.28 61.3731 9.12 61.8291 10.392H56.0931ZM70.358 5.52H66.758V18H70.358V11.28C70.358 9.816 71.438 8.712 72.878 8.712C73.406 8.712 73.838 8.832 74.174 9.048V5.208C72.47 5.208 71.198 5.736 70.358 6.816V5.52Z" fill="#213053"/>
<path d="M76.9333 14.232C75.7813 14.232 74.9173 15.096 74.9173 16.272C74.9173 17.448 75.7813 18.312 76.9333 18.312C78.1093 18.312 78.9973 17.448 78.9973 16.272C78.9973 15.096 78.1093 14.232 76.9333 14.232Z" fill="#F18B62"/>
</svg>
